:SAMPLES-PER-SECOND 30
:FULLY-SPECIFIED
:DEGREES
380
root  38.4062 38.5156 23.4175 -112.837 82.4567 -118.211
RightUpLeg  -29.4759 -14.6568 2.70929
RightLeg  32.5919 -4.75481 -3.50172
RightFoot  -0.259601 -0.358626 3.68748
RightToes  0.00048216 0.542163 -0.142577
Spine  57.6527 -1.90481 2.21715
Spine1  5.75441 0.299784 -3.81039
HEad  -34.8251 19.6195 -28.7995
LeftShoulder1  9.27429 -17.3926 -38.1996
LeftArm  -20.7074 -10.5283 -22.1396
LeftForeArm  17.2703 -68.4508 -28.4957
LeftHand  -0.25398 0.0180481 5.50724
RightShoulder  5.71326 11.8265 31.3124
RightArm  -18.9142 5.64824 23.2292
RightForeArm  -0.815043 74.0402 48.3456
RightHand  0.0336583 -11.9307 -2.04266
LeftUpLeg  -35.5252 29.9891 -10.0559
LeftLeg  15.8051 1.64619 -1.29456
LeftFoot  8.83303 -3.20045 17.5391
LeftToes  1.06244e-005 4.65856e-005 -8.18505e-006
381
root  37.8585 38.5187 23.4935 -121.105 82.3437 -123.939
RightUpLeg  -26.2573 -11.6175 2.10262
RightLeg  40.4412 -4.69855 -4.51085
RightFoot  -3.94218 -0.358165 5.14791
RightToes  0.00048216 0.542163 -0.142577
Spine  55.2449 -1.54507 1.81169
Spine1  6.03047 0.249814 -3.51688
HEad  -34.3519 23.1333 -32.1551
LeftShoulder1  9.46096 -16.5825 -40.7897
LeftArm  -20.8333 -5.29137 -20.5245
LeftForeArm  20.1642 -70.3411 -31.8655
LeftHand  -0.25398 0.0180481 5.50724
RightShoulder  5.85543 11.677 32.6232
RightArm  -16.4246 3.10169 24.0998
RightForeArm  3.35752 75.0028 52.9132
RightHand  0.118021 -12.884 -3.14934
LeftUpLeg  -30.686 26.2188 -6.17718
LeftLeg  13.2925 5.51327 -2.74232
LeftFoot  10.6166 -3.55776 17.8461
LeftToes  1.06244e-005 4.65856e-005 -8.18505e-006
382
root  37.3036 38.4432 23.6211 -133.683 81.7917 -134.1
RightUpLeg  -22.5171 -10.0796 2.18362
RightLeg  46.6135 -1.48169 -1.95984
RightFoot  -7.33424 -0.315088 7.65023
RightToes  0.00048216 0.542163 -0.142577
Spine  52.7508 -1.47117 1.86166
Spine1  5.91108 0.23715 -3.5064
HEad  -33.7036 27.1027 -33.5925
LeftShoulder1  9.72993 -16.1411 -43.06
LeftArm  -20.9297 0.0829806 -19.0679
LeftForeArm  23.1345 -71.9137 -35.3345
LeftHand  -0.25398 0.0180481 5.50724
RightShoulder  6.0178 11.5179 34.1073
RightArm  -14.2886 0.393607 24.597
RightForeArm  6.99722 75.6123 56.3247
RightHand  0.170725 -13.4826 -3.7038
LeftUpLeg  -26.7964 22.1729 -3.58307
LeftLeg  11.0766 8.61419 -4.14631
LeftFoot  12.1856 -3.90212 18.2178
LeftToes  1.06244e-005 4.65856e-005 -8.18505e-006
383
root  36.716 38.2825 23.7788 -146.909 80.5128 -145.023
RightUpLeg  -18.3899 -9.46218 2.75796
RightLeg  51.2231 3.00078 3.62869
RightFoot  -8.84433 -0.333669 12.064
RightToes  0.00048216 0.542163 -0.142577
Spine  50.2695 -1.55112 2.28219
Spine1  5.46404 0.287224 -3.61192
HEad  -32.4283 31.1747 -34.5143
LeftShoulder1  9.9021 -15.7951 -44.6967
LeftArm  -21.042 5.51119 -18.2481
LeftForeArm  27.4267 -73.5783 -39.8629
LeftHand  -0.25398 0.0180481 5.50724
RightShoulder  6.07098 11.2711 35.1228
RightArm  -12.3098 -2.19128 25.2144
RightForeArm  8.97315 75.8371 57.6278
RightHand  0.177196 -13.8895 -3.64839
LeftUpLeg  -24.0288 18.9706 -2.41739
LeftLeg  9.44801 10.0517 -5.18452
LeftFoot  13.6216 -4.08052 17.9061
LeftToes  1.06244e-005 4.65856e-005 -8.18505e-006
384
root  36.0627 38.0429 23.9441 -158.026 78.8426 -153.986
RightUpLeg  -13.9365 -8.72944 3.56239
RightLeg  53.4908 6.76202 9.27953
RightFoot  -8.59884 -0.45933 17.0629
RightToes  0.00048216 0.542163 -0.142577
Spine  47.5824 -1.49258 2.76649
Spine1  5.57756 0.610522 -3.90959
HEad  -30.925 34.9257 -35.6973
LeftShoulder1  9.98319 -15.4696 -45.8833
LeftArm  -21.3482 10.2917 -17.8698
LeftForeArm  33.3697 -75.24 -45.7211
LeftHand  -0.25398 0.0180481 5.50724
RightShoulder  6.02716 10.9987 35.5848
RightArm  -10.5459 -4.15126 25.7578
RightForeArm  9.20977 75.845 57.6336
RightHand  0.183723 -14.505 -3.53339
LeftUpLeg  -22.0274 16.1818 -2.02355
LeftLeg  8.26314 10.85 -6.12574
LeftFoot  15.218 -4.20862 17.2907
LeftToes  1.06244e-005 4.65856e-005 -8.18505e-006
385
root  35.3421 37.7776 24.089 -167.122 76.7643 -161.055
RightUpLeg  -8.86813 -8.1797 4.60162
RightLeg  52.1978 8.85353 11.6757
RightFoot  -10.3857 -0.232792 16.4727
RightToes  0.00048216 0.542163 -0.142577
Spine  44.7132 -1.40971 3.63725
Spine1  6.24582 1.12095 -4.38547
HEad  -29.3587 38.4685 -36.8945
LeftShoulder1  10.0243 -15.2068 -46.7453
LeftArm  -21.683 14.2564 -17.6657
LeftForeArm  40.4283 -76.6676 -52.6347
LeftHand  -0.25398 0.0180481 5.50724
RightShoulder  5.98756 10.7802 35.9367
RightArm  -8.96892 -5.60235 25.7123
RightForeArm  9.03527 75.8826 57.9974
RightHand  0.211331 -15.4821 -3.57641
LeftUpLeg  -20.2394 13.6292 -2.19025
LeftLeg  6.84739 11.0772 -7.22483
LeftFoot  17.0965 -4.52541 17.2916
LeftToes  1.06244e-005 4.65856e-005 -8.18505e-006
